<?xml version="1.0" encoding="UTF-8" standalone="no"?>
<!DOCTYPE svg PUBLIC "-//W3C//DTD SVG 1.1//EN"
 "http://www.w3.org/Graphics/SVG/1.1/DTD/svg11.dtd">
<!-- Generated by graphviz version 2.43.0 (0)
 -->
<!-- Title: G Pages: 1 -->
<svg width="539pt" height="582pt"
 viewBox="0.00 0.00 538.68 582.00" xmlns="http://www.w3.org/2000/svg" xmlns:xlink="http://www.w3.org/1999/xlink">
<g id="graph0" class="graph" transform="scale(1 1) rotate(0) translate(4 578)">
<title>G</title>
<polygon fill="white" stroke="transparent" points="-4,4 -4,-578 534.68,-578 534.68,4 -4,4"/>
<g id="clust1" class="cluster">
<title>cluster_Global</title>
<polygon fill="none" stroke="black" points="8,-8 8,-566 522.68,-566 522.68,-8 8,-8"/>
<text text-anchor="middle" x="265.34" y="-553.2" font-family="Times,serif" font-size="11.00" fill="gray">Global</text>
</g>
<!-- \\Gov_BR_Admin_Page -->
<g id="node1" class="node">
<title>\\Gov_BR_Admin_Page</title>
<polygon fill="none" stroke="black" points="463.68,-538 332.68,-538 332.68,-502 463.68,-502 463.68,-538"/>
<text text-anchor="middle" x="398.18" y="-517.2" font-family="Courier,monospace" font-size="11.00">Gov_BR_Admin_Page</text>
</g>
<!-- \\Gov_BR_Contrast_Mode -->
<g id="node2" class="node">
<title>\\Gov_BR_Contrast_Mode</title>
<polygon fill="none" stroke="black" points="474.18,-484 322.18,-484 322.18,-448 474.18,-448 474.18,-484"/>
<text text-anchor="middle" x="398.18" y="-463.2" font-family="Courier,monospace" font-size="11.00">Gov_BR_Contrast_Mode</text>
</g>
<!-- \\Gov_BR_Customize -->
<g id="node3" class="node">
<title>\\Gov_BR_Customize</title>
<polygon fill="none" stroke="black" points="460.68,-430 335.68,-430 335.68,-394 460.68,-394 460.68,-430"/>
<text text-anchor="middle" x="398.18" y="-409.2" font-family="Courier,monospace" font-size="11.00">Gov_BR_Customize</text>
</g>
<!-- \\Gov_BR_Signature_Field -->
<g id="node4" class="node">
<title>\\Gov_BR_Signature_Field</title>
<polygon fill="none" stroke="black" points="480.68,-376 315.68,-376 315.68,-340 480.68,-340 480.68,-376"/>
<text text-anchor="middle" x="398.18" y="-355.2" font-family="Courier,monospace" font-size="11.00">Gov_BR_Signature_Field</text>
</g>
<!-- \\Gov_BR_SVG_Icons -->
<g id="node5" class="node">
<title>\\Gov_BR_SVG_Icons</title>
<polygon fill="none" stroke="black" points="460.68,-322 335.68,-322 335.68,-286 460.68,-286 460.68,-322"/>
<text text-anchor="middle" x="398.18" y="-301.2" font-family="Courier,monospace" font-size="11.00">Gov_BR_SVG_Icons</text>
</g>
<!-- \\Gov_BR_VLibras -->
<g id="node6" class="node">
<title>\\Gov_BR_VLibras</title>
<polygon fill="none" stroke="black" points="453.68,-268 342.68,-268 342.68,-232 453.68,-232 453.68,-268"/>
<text text-anchor="middle" x="398.18" y="-247.2" font-family="Courier,monospace" font-size="11.00">Gov_BR_VLibras</text>
</g>
<!-- \\Gov_BR_Walker_Institutional_Menu -->
<g id="node7" class="node">
<title>\\Gov_BR_Walker_Institutional_Menu</title>
<polygon fill="none" stroke="black" points="514.68,-214 281.68,-214 281.68,-178 514.68,-178 514.68,-214"/>
<text text-anchor="middle" x="398.18" y="-193.2" font-family="Courier,monospace" font-size="11.00">Gov_BR_Walker_Institutional_Menu</text>
</g>
<!-- Walker_Nav_Menu -->
<g id="node11" class="node">
<title>Walker_Nav_Menu</title>
<ellipse fill="none" stroke="black" cx="112.84" cy="-169" rx="96.68" ry="18"/>
<text text-anchor="middle" x="112.84" y="-165.3" font-family="Times,serif" font-size="14.00" fill="gray">Walker_Nav_Menu</text>
</g>
<!-- \\Gov_BR_Walker_Institutional_Menu&#45;&gt;Walker_Nav_Menu -->
<g id="edge1" class="edge">
<title>\\Gov_BR_Walker_Institutional_Menu&#45;&gt;Walker_Nav_Menu</title>
<path fill="none" stroke="black" d="M281.53,-184.98C257.67,-182.71 232.79,-180.33 209.72,-178.14"/>
<polygon fill="none" stroke="black" points="209.9,-174.64 199.61,-177.17 209.24,-181.61 209.9,-174.64"/>
</g>
<!-- \\Gov_BR_Walker_Nav_Menu -->
<g id="node8" class="node">
<title>\\Gov_BR_Walker_Nav_Menu</title>
<polygon fill="none" stroke="black" points="480.68,-160 315.68,-160 315.68,-124 480.68,-124 480.68,-160"/>
<text text-anchor="middle" x="398.18" y="-139.2" font-family="Courier,monospace" font-size="11.00">Gov_BR_Walker_Nav_Menu</text>
</g>
<!-- \\Gov_BR_Walker_Nav_Menu&#45;&gt;Walker_Nav_Menu -->
<g id="edge2" class="edge">
<title>\\Gov_BR_Walker_Nav_Menu&#45;&gt;Walker_Nav_Menu</title>
<path fill="none" stroke="black" d="M315.61,-149.77C282.43,-152.94 243.85,-156.61 209.36,-159.9"/>
<polygon fill="none" stroke="black" points="208.9,-156.43 199.28,-160.86 209.56,-163.39 208.9,-156.43"/>
</g>
<!-- \\FlattedString -->
<g id="node9" class="node">
<title>\\FlattedString</title>
<polygon fill="none" stroke="black" points="450.18,-106 346.18,-106 346.18,-70 450.18,-70 450.18,-106"/>
<text text-anchor="middle" x="398.18" y="-85.2" font-family="Courier,monospace" font-size="11.00">FlattedString</text>
</g>
<!-- \\Flatted -->
<g id="node10" class="node">
<title>\\Flatted</title>
<polygon fill="none" stroke="black" points="430.18,-52 366.18,-52 366.18,-16 430.18,-16 430.18,-52"/>
<text text-anchor="middle" x="398.18" y="-31.2" font-family="Courier,monospace" font-size="11.00">Flatted</text>
</g>
</g>
</svg>
